# xmcd
#
# Track frame offsets:
#	150
#	23689
#	102530
#
# Disc length: 1676 seconds
#
# Revision: 1
# Processed by: cddbd v1.5.2PL0 Copyright (c) Steve Scherf et al.
# Submitted via: audiograbber 1.83.01
#
DISCID=1c068a03
DTITLE=Joe Bonamassa - Mr. Kyps (Live) [CD 2)
DYEAR=2005
DGENRE=Blues-Rock
TTITLE0=JB Solo
TTITLE1=Are You Experienced
TTITLE2=I Don't Live Anywhere
EXTD=
EXTT0=
EXTT1=
EXTT2=
PLAYORDER=
